<?xml version="1.0" encoding="UTF-8"?>
<svg width="32px" height="32px" viewBox="0 0 32 32" version="1.1" xmlns="http://www.w3.org/2000/svg">
    <g fill="#9CAF88">
        <!-- Upper wings -->
        <path d="M16,16 C16,16 18,4 24,2 C30,0 32,8 28,12 C24,16 16,16 16,16 M16,16 C16,16 14,4 8,2 C2,0 0,8 4,12 C8,16 16,16 16,16">
            <animate attributeName="d" 
                    dur="0.8s" 
                    repeatCount="indefinite"
                    values="
                    M16,16 C16,16 18,4 24,2 C30,0 32,8 28,12 C24,16 16,16 16,16 M16,16 C16,16 14,4 8,2 C2,0 0,8 4,12 C8,16 16,16 16,16;
                    M16,16 C16,16 19,6 25,4 C31,2 31,9 27,13 C23,17 16,16 16,16 M16,16 C16,16 13,6 7,4 C1,2 1,9 5,13 C9,17 16,16 16,16;
                    M16,16 C16,16 18,4 24,2 C30,0 32,8 28,12 C24,16 16,16 16,16 M16,16 C16,16 14,4 8,2 C2,0 0,8 4,12 C8,16 16,16 16,16"
            />
        </path>
        <!-- Lower wings -->
        <path d="M16,16 C16,16 18,28 24,30 C30,32 32,24 28,20 C24,16 16,16 16,16 M16,16 C16,16 14,28 8,30 C2,32 0,24 4,20 C8,16 16,16 16,16">
            <animate attributeName="d" 
                    dur="0.8s" 
                    repeatCount="indefinite"
                    values="
                    M16,16 C16,16 18,28 24,30 C30,32 32,24 28,20 C24,16 16,16 16,16 M16,16 C16,16 14,28 8,30 C2,32 0,24 4,20 C8,16 16,16 16,16;
                    M16,16 C16,16 19,26 25,28 C31,30 31,23 27,19 C23,15 16,16 16,16 M16,16 C16,16 13,26 7,28 C1,30 1,23 5,19 C9,15 16,16 16,16;
                    M16,16 C16,16 18,28 24,30 C30,32 32,24 28,20 C24,16 16,16 16,16 M16,16 C16,16 14,28 8,30 C2,32 0,24 4,20 C8,16 16,16 16,16"
            />
        </path>
        <!-- Body -->
        <path d="M16,8 L16,24" stroke="#9CAF88" stroke-width="1.5"/>
        <circle cx="16" cy="12" r="1"/>
        <circle cx="16" cy="16" r="1"/>
        <circle cx="16" cy="20" r="1"/>
    </g>
</svg> 